<svg width="66" height="26" viewBox="0 0 66 26" fill="none" xmlns="http://www.w3.org/2000/svg">
<g clip-path="url(#clip0_415_2503)">
<path d="M60.225 1.24702H46.9629C44.2092 1.24702 41.9795 3.4767 41.9795 6.23041V15.1369H59.3378V14.307H50.9783C50.9493 14.307 51.1858 12.7455 51.2086 12.625C51.3581 11.9392 51.5717 11.2657 51.8715 10.6318C52.3269 9.67523 52.9837 8.81097 53.8304 8.18319C54.9426 7.35326 56.3362 6.98483 57.7077 6.97338C59.0441 6.95584 61.7063 6.98483 61.7063 6.98483V15.7418L56.4926 20.806L42.1587 20.8121C42.7347 22.9266 44.6646 24.4759 46.9636 24.4759H60.2257C62.9794 24.4759 65.2091 22.2462 65.2091 19.4925V6.23041C65.2091 3.4767 62.9794 1.24702 60.2257 1.24702H60.225ZM50.9897 11.9163L48.5991 14.3016H48.5701L46.1391 11.8706L48.4374 9.56615L46.1505 7.26782L48.5877 4.90543L51.0248 7.25562L48.7318 9.56615L51.0362 11.8706L50.9905 11.9163H50.9897Z" fill="white"/>
<path d="M14.3294 8.16211V13.2248H21.2503V11.2385L22.7241 11.0463V13.2248H25.416V10.5329L26.8897 10.2125V13.2248H29.5817V9.37954L31.0554 8.99509V13.2248H36.054C36.0357 12.2561 35.5834 11.3911 35.0281 10.6305L36.2447 9.21554C36.3409 9.14384 36.379 9.22545 36.4385 9.28343C36.752 9.58778 37.1822 10.6687 37.3035 11.1103C37.3684 11.3453 37.5278 11.9601 37.5278 12.1676V16.7497H31.9204L30.2873 15.1479L29.7327 16.7413C28.3482 16.7574 26.7234 17.0175 26.0888 15.4675L25.1917 16.7497H12.8557V15.0838L11.0921 16.7482H3.66088C2.49379 16.7116 0.87207 15.4408 0.87207 14.218V10.2766H2.3458V13.2248H12.8557V12.7122H7.66482C7.77619 10.8655 8.62367 8.93101 10.5154 8.35357C10.7015 8.29636 11.1852 8.16211 11.3492 8.16211H14.3294Z" fill="white"/>
<path d="M14.1397 5.74909C14.1404 5.75595 14.1404 5.76358 14.1397 5.77197L12.447 7.46463L10.8444 5.86198L9.24323 7.45395L7.59863 5.76053L9.23485 4.06329L10.8444 5.65831L12.447 4.05566L12.4783 4.08694L14.1397 5.74909Z" fill="white"/>
<path d="M35.5418 4.98359L33.8379 6.6875L35.5418 8.39141L37.2457 6.6875L35.5418 4.98359Z" fill="white"/>
<path d="M27.4029 4.76736L27.0161 5.82232L22.9824 7.13815L23.3181 6.06489L27.4029 4.76736Z" fill="white"/>
<path d="M33.1064 4.82978L33.4268 3.77329L37.4636 2.45898L37.1409 3.51394L33.1064 4.82978Z" fill="white"/>
<path d="M31.382 19.6934C31.0448 19.6934 30.7603 19.8101 30.5269 20.0435C30.2935 20.2761 30.1768 20.566 30.1768 20.9131C30.1768 21.2602 30.2935 21.5493 30.5261 21.7827C30.7588 22.0161 31.0433 22.1328 31.3797 22.1328C31.5605 22.1328 31.7306 22.0947 31.8893 22.0184L31.2706 21.3845L31.6642 21.0298L32.3172 21.6988C32.4972 21.4745 32.5872 21.2129 32.5872 20.9131C32.5872 20.5668 32.4713 20.2769 32.2378 20.0435C32.0044 19.8101 31.7199 19.6934 31.3827 19.6934H31.382Z" fill="white"/>
<path d="M24.4053 21.4056H25.4824L24.9453 19.8701L24.4053 21.4056Z" fill="white"/>
<path d="M12.5723 21.4056H13.6501L13.1123 19.8701L12.5723 21.4056Z" fill="white"/>
<path d="M0.87207 18.335V23.265H37.5285V18.335H0.87207ZM8.26439 22.615H7.8273L6.22466 20.3076V22.615H5.66628V19.2145H6.09269L7.70678 21.5372V19.2145H8.26515V22.615H8.26439ZM14.0739 22.615L13.8344 21.93H12.3889L12.1509 22.615H11.5437L12.7779 19.2145H13.4484L14.678 22.615H14.0754H14.0739ZM19.9589 22.4083C19.7369 22.5876 19.4463 22.6784 19.0863 22.6784C18.7598 22.6784 18.4821 22.6036 18.2533 22.4549C18.0252 22.3061 17.865 22.1017 17.775 21.8423L18.2556 21.5609C18.3914 21.943 18.6736 22.1345 19.1008 22.1345C19.3113 22.1345 19.4692 22.0933 19.5737 22.0109C19.6782 21.9285 19.7316 21.8217 19.7316 21.689C19.7316 21.5563 19.6744 21.4449 19.5615 21.3717C19.4478 21.2992 19.2465 21.2191 18.9581 21.1322C18.8002 21.0734 18.6698 21.0246 18.5683 20.9872C18.4661 20.9491 18.3593 20.8926 18.2479 20.8164C18.1366 20.7408 18.0527 20.6455 17.9977 20.5326C17.9421 20.4189 17.9146 20.2862 17.9146 20.1344C17.9146 19.8331 18.0214 19.5943 18.235 19.4174C18.4486 19.2412 18.7064 19.1527 19.0077 19.1527C19.2793 19.1527 19.5173 19.2198 19.7217 19.3525C19.9254 19.4853 20.0825 19.6683 20.1931 19.901L19.7217 20.1733C19.5798 19.856 19.341 19.6973 19.0077 19.6973C18.846 19.6973 18.7163 19.7355 18.6187 19.8117C18.5218 19.888 18.473 19.991 18.473 20.1207C18.473 20.2504 18.5226 20.3419 18.6217 20.4128C18.7209 20.4838 18.9009 20.5593 19.161 20.6386C19.2884 20.6867 19.3815 20.7218 19.4402 20.7439C19.4997 20.766 19.5836 20.7981 19.6942 20.84C19.8041 20.882 19.8872 20.9254 19.9414 20.972C19.9963 21.0177 20.0543 21.0749 20.1176 21.1444C20.1801 21.213 20.2244 21.2923 20.2503 21.3801C20.2755 21.4686 20.2884 21.5692 20.2884 21.6806C20.2884 21.988 20.1771 22.2321 19.9559 22.4114L19.9589 22.4083ZM25.9065 22.615L25.667 21.93H24.2207L23.9827 22.615H23.3755L24.6097 19.2145H25.2802L26.5091 22.615H25.9065ZM33.0578 22.4594L32.6642 22.8141L32.2866 22.4274C32.0028 22.5945 31.7007 22.6784 31.3819 22.6784C30.8929 22.6784 30.4764 22.5075 30.1332 22.1658C29.7899 21.824 29.6183 21.4075 29.6183 20.9148C29.6183 20.422 29.7899 20.0055 30.1332 19.6638C30.4764 19.322 30.8922 19.1512 31.3819 19.1512C31.8716 19.1512 32.2873 19.322 32.6306 19.6638C32.9738 20.0055 33.1455 20.422 33.1455 20.9148C33.1455 21.3694 32.9975 21.7622 32.7008 22.0941L33.0578 22.4594Z" fill="white"/>
</g>
<defs>
<clipPath id="clip0_415_2503">
<rect width="65.193" height="25.5007" fill="white"/>
</clipPath>
</defs>
</svg>
